<?xml version="1.0" encoding="UTF-8" standalone="no"?>
<!-- Created with Inkscape (http://www.inkscape.org/) -->

<svg
   xmlns:dc="http://purl.org/dc/elements/1.1/"
   xmlns:cc="http://creativecommons.org/ns#"
   xmlns:rdf="http://www.w3.org/1999/02/22-rdf-syntax-ns#"
   xmlns:svg="http://www.w3.org/2000/svg"
   xmlns="http://www.w3.org/2000/svg"
   xmlns:sodipodi="http://sodipodi.sourceforge.net/DTD/sodipodi-0.dtd"
   xmlns:inkscape="http://www.inkscape.org/namespaces/inkscape"
   width="210mm"
   height="297mm"
   id="svg2"
   version="1.1"
   inkscape:version="0.47pre4 r22446"
   sodipodi:docname="teagarden.svg"
   inkscape:export-filename="/storage/devel/teagarden.hg/app/static/img/tg.png"
   inkscape:export-xdpi="72.57"
   inkscape:export-ydpi="72.57">
  <defs
     id="defs4">
    <inkscape:perspective
       id="perspective5442"
       inkscape:persp3d-origin="0.5 : 0.33333333 : 1"
       inkscape:vp_z="1 : 0.5 : 1"
       inkscape:vp_y="0 : 1000 : 0"
       inkscape:vp_x="0 : 0.5 : 1"
       sodipodi:type="inkscape:persp3d" />
  </defs>
  <sodipodi:namedview
     id="base"
     pagecolor="#ffffff"
     bordercolor="#666666"
     borderopacity="1.0"
     inkscape:pageopacity="0"
     inkscape:pageshadow="2"
     inkscape:zoom="0.70710678"
     inkscape:cx="48.01778"
     inkscape:cy="854.26995"
     inkscape:document-units="px"
     inkscape:current-layer="layer1"
     showgrid="false"
     inkscape:snap-nodes="false"
     inkscape:window-width="1680"
     inkscape:window-height="977"
     inkscape:window-x="0"
     inkscape:window-y="25"
     inkscape:window-maximized="1" />
  <metadata
     id="metadata7">
    <rdf:RDF>
      <cc:Work
         rdf:about="">
        <dc:format>image/svg+xml</dc:format>
        <dc:type
           rdf:resource="http://purl.org/dc/dcmitype/StillImage" />
        <dc:title></dc:title>
      </cc:Work>
    </rdf:RDF>
  </metadata>
  <g
     inkscape:label="Ebene 1"
     inkscape:groupmode="layer"
     id="layer1"
     style="display:inline">
    <path
       style="fill:#96bf2a;fill-opacity:1;stroke:none"
       d="m 249.98852,68.21875 c -17.87127,0.0022 -40.50675,5.247777 -66.61973,22.46875 -6.74143,4.445837 -12.91239,9.232151 -18.57868,14.25 21.095,37.10576 30.15898,71.25318 34.04774,93.78125 7.63439,-8.11905 14.94016,-18.72575 21.47748,-32.5 42.28852,-89.10262 73.86673,-85.25 73.86673,-85.25 0,0 -16.31438,-12.753385 -44.19354,-12.75 z M 107.02491,201.9375 c -1.70394,6.65856 -2.31904,10.6875 -2.31904,10.6875 0,0 21.91251,12.72536 48.67351,9.75 -14.69734,-3.47886 -31.00332,-9.61903 -46.35447,-20.4375 z"
       id="path2816"
       inkscape:export-filename="/storage/devel/teagarden.hg/app/static/img/tg.png"
       inkscape:export-xdpi="90"
       inkscape:export-ydpi="90" />
    <path
       style="fill:#2c2c2c;fill-opacity:1;stroke:none"
       d="m 188.91541,231.36218 c 0,0 0.0328,-63.64074 -44.69425,-134 -44.727048,-70.35926 -123.963284,-79 -123.963284,-79 0,0 -2.561267,70.75191 34.574794,143 41.979863,81.67169 134.08274,70 134.08274,70 z"
       id="path3600"
       sodipodi:nodetypes="czcsc"
       inkscape:export-filename="/storage/devel/teagarden.hg/app/static/img/tg.png"
       inkscape:export-xdpi="90"
       inkscape:export-ydpi="90" />
    <path
       style="fill:#ffffff;fill-opacity:0.99371069;stroke:none"
       d="M 57.721866,69.05316 C 137.68219,133.58078 158.39897,179.90918 183.04963,226.6712"
       id="path3703"
       sodipodi:nodetypes="cc"
       inkscape:export-filename="/storage/devel/teagarden.hg/app/static/img/tg.png"
       inkscape:export-xdpi="90"
       inkscape:export-ydpi="90" />
  </g>
</svg>
